<svg xmlns="http://www.w3.org/2000/svg" width="72" height="72" viewBox="0 0 72 72">
    <g fill="none" fill-rule="evenodd">
        <path fill="#066F46" d="M71.5 36.252C71.5 55.995 55.495 72 35.75 72 16.006 72 0 55.995 0 36.252 0 16.506 16.006.5 35.75.5 55.495.5 71.5 16.506 71.5 36.25"/>
        <path fill="#FFF" d="M63.592 32.046c-.17 0-.354.1-.472.326-.02.033-.05.11-.149.314-.216.447-.655.639-1.277.639l-1.735.006c-.57 0-.81-.038-1.036-.12-.275-.105-.33-.298-.33-1.21v-2.186c0-.386.055-.553.16-.624.08-.054.208-.066.709-.066h.805c.732 0 .838.051.889.396l.019.114c.052.293.21.448.47.448.367 0 .49-.207.49-.81v-1.448c0-.604-.123-.81-.49-.81-.26 0-.418.138-.47.43l-.014.108c-.052.344-.157.396-.888.396h-.811c-.5 0-.629-.012-.708-.066-.106-.07-.161-.238-.161-.624v-2.047c0-.915.105-1.04 1.058-1.04h1.642c.81 0 1.162.056 1.333.498.082.21.152.337.173.371.116.226.278.27.448.27.317 0 .475-.24.381-.682l-.246-1.197c-.072-.316-.27-.432-.621-.432h-6.96c-.586 0-.801.123-.801.505 0 .256.215.48.449.48h.352c.103 0 .244.105.28.258.054.139.07.227.07.674v7.708c0 .465-.016.55-.07.69-.036.117-.158.222-.28.222h-.352c-.234 0-.432.209-.432.463 0 .384.198.5.784.5h6.838l.445-.002c.353 0 .55-.116.621-.432l.268-1.34c.094-.44-.064-.68-.38-.68M50.628 33.328c-.718 0-.992-.032-1.176-.153-.21-.118-.243-.296-.243-1.052v-7.24c0-.45 0-.556.052-.672.05-.14.211-.225.375-.225h.39a.475.475 0 0 0 .473-.481c0-.382-.218-.505-.863-.505h-3.304c-.616 0-.832.123-.832.505 0 .275.216.48.487.48h.345c.118 0 .263.086.299.226.053.136.07.206.07.672v7.795c0 .43-.017.513-.07.64a.35.35 0 0 1-.299.222h-.345a.454.454 0 0 0-.448.462c0 .385.197.498.793.498h6.73c.36 0 .563-.116.636-.432l.275-1.339c.095-.442-.066-.681-.391-.681-.174 0-.364.1-.483.326-.022.034-.053.11-.154.314-.22.448-.672.64-1.31.64h-1.007zM22.971 24.002c-.307.043-.486.24-.675.861l-2.77 9.03c-.25.86-.487 1.107-1.007 1.107-.518 0-.78-.227-.991-.879 0 0-1.431-4.332-1.48-4.475-.048-.143-.196-.148-.236-.01-.04.138-1.58 4.485-1.58 4.485-.166.422-.211.544-.351.687a1.048 1.048 0 0 1-.591.192c-.506 0-.752-.212-.992-.879l-3.414-9.258c-.259-.722-.342-.809-.897-.932-.372-.068-.487-.191-.487-.476 0-.297.185-.455.585-.455h3.59c.396 0 .571.158.571.476 0 .296-.175.416-.626.455-.384.036-.54.159-.54.44 0 .12.016.246.064.392l.137.401s1.92 5.502 2.223 6.387c.05.141.208.136.263-.023.336-.98 1.254-3.677 1.289-3.788.093-.311.133-.638.023-.996-.04-.126-.627-1.881-.627-1.881-.066-.19-.105-.33-.143-.405-.102-.254-.243-.349-.647-.456-.356-.09-.494-.21-.494-.47 0-.339.2-.532.607-.532h3.41c.397 0 .589.158.589.476 0 .278-.176.416-.563.471-.464.055-.588.162-.588.477 0 .16.035.317.178.74 0 0 1.683 5.393 1.95 6.24.051.159.2.125.243-.017.263-.863 1.928-6.524 1.928-6.524.048-.174.067-.317.067-.42 0-.266-.185-.406-.607-.46-.384-.036-.56-.21-.56-.492 0-.352.198-.491.662-.491h6.025c.573 0 .763.119.763.504 0 .288-.19.498-.43.498h-.333a.393.393 0 0 0-.332.223c-.032.13-.048.253-.048.693v2.27c0 .812.07.88.713.88h2.362c.346 0 .524-.056.614-.158.08-.107.08-.176.08-.829v-2.163c0-.46 0-.563-.044-.693-.062-.135-.2-.223-.317-.223h-.333c-.262 0-.473-.21-.473-.498 0-.385.21-.504.806-.504h3.16c.592 0 .803.119.803.504 0 .288-.211.498-.45.498h-.353c-.12 0-.258.107-.296.223-.049.13-.061.253-.061.693v7.9c0 .46.012.563.06.706.04.123.177.21.297.21h.353c.258 0 .45.23.45.491 0 .39-.192.509-.803.509h-3.16c-.595 0-.784-.12-.784-.509 0-.262.211-.49.45-.49h.334a.387.387 0 0 0 .317-.211c.043-.143.043-.246.043-.705v-2.567c0-.654 0-.722-.08-.829-.09-.103-.267-.158-.613-.158h-2.362c-.643 0-.713.069-.713.88v2.674c0 .46.016.562.048.705.054.123.189.21.332.21h.333c.24 0 .418.23.418.511 0 .37-.197.489-.75.489H23.34c-.585 0-.795-.12-.795-.509 0-.262.21-.49.45-.49h.345c.122 0 .266-.088.298-.211.054-.143.054-.234.054-.705v-7.901c0-.9-.417-.959-.722-.916M61.095 42.844c-.539-.567-.972-.913-2.293-1.86-.356-.257-.62-.454-.827-.606-.332-.26-.6-.532-.769-.792-.14-.19-.182-.453-.182-.706 0-.707.502-1.16 1.274-1.16.547 0 1.122.193 1.572.554.35.279.421.345.796.933.156.22.265.29.445.29.286 0 .481-.187.481-.412 0-.054 0-.159-.03-.24l-.4-1.864c-.067-.307-.225-.481-.47-.481-.136 0-.188.015-.354.139-.145.099-.274.155-.384.155-.065 0-.153-.018-.229-.034a5.487 5.487 0 0 1-.424-.105 6.63 6.63 0 0 0-1.443-.155c-1.842 0-3.076 1.105-3.076 2.775 0 .689.215 1.306.636 1.81.52.618.668.72 2.253 1.863.962.689 1.412 1.067 1.775 1.48.355.414.545.828.545 1.293 0 .912-.742 1.537-1.828 1.537-.957 0-1.893-.52-2.474-1.363l-.24-.342a.519.519 0 0 0-.418-.231.525.525 0 0 0-.531.538c0 .086.013.24.044.345l.421 1.724c.1.412.237.571.518.571.148 0 .23-.036.388-.159.145-.136.215-.17.357-.17.094 0 .123.02.363.085.476.156 1.138.244 1.757.244 2.208 0 3.652-1.315 3.652-3.308 0-.885-.34-1.746-.905-2.348M20.472 38.13l-.252-1.198c-.073-.316-.276-.432-.637-.432h-7.757c-.601 0-.822.124-.822.504 0 .257.22.481.46.481h.362c.107 0 .25.104.287.258.057.138.072.227.072.674v7.705c0 .466-.02.548-.056.671-.06.136-.18.225-.303.225h-.365c-.246 0-.461.222-.461.482 0 .38.215.5.826.5h3.294c.658 0 .878-.12.878-.5a.47.47 0 0 0-.475-.482h-.403a.458.458 0 0 1-.382-.225c-.043-.123-.043-.205-.043-.671l-.003-2.809c0-.386.056-.554.165-.623.082-.055.214-.067.727-.067h1.474c.752 0 .86.052.913.396l.02.114c.053.293.214.448.482.448.376 0 .5-.206.5-.81v-1.447c0-.604-.124-.81-.5-.81-.268 0-.43.137-.483.43l-.014.108c-.053.344-.16.396-.912.396h-1.48c-.513 0-.645-.013-.727-.066-.109-.07-.165-.238-.165-.624v-2.047c0-.915.109-1.039 1.086-1.039h2.298c.832 0 1.193.056 1.368.498.084.21.157.337.177.37.12.226.287.27.46.27.326 0 .488-.239.391-.68M37.249 47.26c-1.976 0-3.148-1.777-3.148-4.708 0-3 1.19-4.81 3.113-4.81 1.94 0 3.164 1.844 3.164 4.775 0 2.897-1.207 4.742-3.13 4.742m-11.478 0c-1.976 0-3.147-1.776-3.147-4.707 0-3 1.188-4.81 3.112-4.81 1.94 0 3.164 1.844 3.164 4.775 0 2.897-1.206 4.742-3.13 4.742M37.232 36.5c-2.872 0-4.891 1.567-5.533 4.153a.04.04 0 0 0-.004.01c-.056.284-.312.305-.377.01-.63-2.588-2.68-4.173-5.565-4.173-3.514 0-5.752 2.345-5.752 6.034 0 3.604 2.255 5.966 5.718 5.966 2.887 0 4.918-1.563 5.574-4.133.004-.01.01-.02.012-.031.064-.302.323-.283.38.003.003.018.01.037.018.055.65 2.535 2.67 4.106 5.494 4.106 3.55 0 5.804-2.362 5.804-6.052 0-3.62-2.273-5.948-5.769-5.948"/>
        <path fill="#FFF" d="M41.092 23.563c1.523.57 2.13 2.183 2.13 4.681 0 3.03-1.277 4.958-3.314 4.958-2.092 0-3.333-1.857-3.333-4.921 0-1.977.29-3.533 1.724-4.902 1.435-1.369 2.776-1.173 4.081-2.813.554-.696.546-1.293.124-1.41-.394-.109-.648.399-1.035.644-1.412.898-3.009.063-3.864-.873-.872-.952-2.003-.917-2.672-.774-.288.061-.45-.16-.135-.395.721-.536 2.198-.571 3.107.233.777.685 1.818 1.23 2.588 1.088.457-.085.498-.597-.027-.778-1.458-.506-1.316-2.121-3.323-2.68-2.367-.66-4.51 1.504-5.102 3.648-.17.617.211.97.805.721 1.968-.824 2.457.326 4.128.969.747.292 1.648.222 2.14.129.412-.08.414.323.182.4-1.12.37-2.266.937-2.944 1.429-1.618 1.054-2.554 2.921-2.554 5.346 0 3.768 2.388 6.237 6.055 6.237 3.759 0 6.147-2.47 6.147-6.328 0-2.217-.725-3.872-2.178-4.914-.842-.604-1.608-.864-2.392-.773-.95.109-1.076.81-.338 1.078M20.223 54.21l1.214-1.558c.074-.107.187-.152.321-.152.147 0 .253.03.315.261l.426 3.538c.02.2-.314.201-.46.201-.108 0-.308-.057-.308-.189l-.296-2.115c-.019-.087-.055-.126-.128-.126-.06 0-.09.028-.132.076l-1.006 1.216a.252.252 0 0 1-.2.108c-.113 0-.163-.03-.23-.12l-.927-1.18a.16.16 0 0 0-.133-.06c-.074 0-.112.06-.12.143l-.29 2.046c-.029.168-.248.201-.429.201-.126 0-.34-.057-.34-.208l.426-3.447c.045-.207.093-.325.408-.325.08 0 .21.02.31.168l1.152 1.529c.06.082.132.152.207.15.075-.002.154-.076.22-.156M26.04 55.058h.94c.067 0 .136-.063.096-.142-.026-.051-.424-.886-.473-.99-.043-.094-.152-.098-.193.003-.046.114-.438.915-.465.972-.044.094.003.157.095.157zm.178-2.373a.302.302 0 0 1 .298-.185c.16 0 .249.056.3.17 0 0 1.625 3.51 1.671 3.614.083.184-.268.216-.385.216-.117 0-.296-.019-.352-.15l-.252-.527c-.032-.069-.1-.125-.18-.125h-1.601c-.101 0-.192.077-.249.22l-.224.432c-.05.125-.291.144-.402.144-.1 0-.425-.01-.322-.231l1.698-3.578zM32.29 53.396v.89c0 .137.144.22.28.22h1.33c.446 0 .81-.214.81-.656 0-.44-.364-.656-.81-.656h-1.33c-.136 0-.28.045-.28.202m3.21.454c0 .718-.563.953-.79 1.13-.113.09-.14.153-.073.241.035.047.64.852.727.972.134.183.014.303-.398.303-.232 0-.385-.037-.485-.173l-.67-.954a.395.395 0 0 0-.337-.176h-.958c-.116 0-.226.088-.226.196l.006.951c0 .19-.398.158-.529.158-.172 0-.267-.044-.267-.22l.007-3.625c0-.096.088-.153.185-.153h2.27c.88 0 1.538.518 1.538 1.35M38.916 52.516c.218 0 .366.047.366.236v1.06c0 .17.084.252.199.252.333 0 .404-.065.528-.163.138-.11 1.542-1.3 1.542-1.3.174-.139.352-.135.523.015.14.123.203.262.046.406-.108.098-1.341 1.128-1.341 1.128-.152.122-.114.236-.01.342 0 0 1.479 1.504 1.634 1.66.232.234.018.348-.321.348-.361 0-.459-.051-.55-.153l-1.367-1.349c-.186-.149-.373-.172-.628-.172-.144 0-.255.135-.255.292v1.15c0 .218-.204.232-.425.232-.235 0-.357-.06-.357-.236v-3.506c0-.206.14-.242.416-.242M45.243 52.5h3.042c.18 0 .215.12.215.339 0 .202-.028.361-.226.361h-2.376c-.097 0-.165.077-.165.179v.542c0 .114.083.178.19.178h1.373c.165 0 .208.143.208.356 0 .183-.04.344-.192.344h-1.37c-.11 0-.209.078-.209.204v.588c0 .14.076.209.19.209h2.354c.156 0 .21.102.21.361 0 .186-.042.339-.208.339h-3.032c-.177 0-.247-.084-.247-.293v-3.44c0-.157.062-.267.243-.267M54.236 52.5c.158 0 .264.079.264.335 0 .228-.068.354-.246.354h-1.089c-.15 0-.258.045-.258.204l.008 2.882c0 .201-.162.225-.418.225-.248 0-.412-.021-.412-.22v-2.883c0-.14-.058-.208-.258-.208H50.73c-.18 0-.229-.151-.229-.278 0-.14-.014-.411.221-.411h3.515zM48.029 47.275c-.873-.05-1.49-.109-1.49-1.095v-7.237c0-.916.224-1.118.973-1.24.193-.03.588-.057.588-.057 2.064 0 3.29 1.787 3.29 4.829 0 3.038-1.235 4.917-3.361 4.8m4.395-9.239c-1.063-1.07-2.407-1.536-4.571-1.536-2.164 0-3.58.193-4.086.267-.507.074-.767.127-.767.504 0 .26.173.48.412.48h.355c.117 0 .236.092.293.225.034.124.054.23.054.68v7.688c0 .451-.02.556-.054.68-.057.133-.176.225-.293.225h-.355c-.239 0-.412.22-.412.48 0 .378.26.43.767.504.506.075 1.922.267 4.086.267 1.894 0 3.15-.366 4.15-1.172C53.292 46.31 54 44.583 54 42.494c0-1.867-.554-3.439-1.576-4.458M63.938 47.574V47h.316c.23 0 .466.057.466.29 0 .27-.257.285-.544.285h-.238zm.595.31c.296-.03.522-.19.522-.596 0-.417-.22-.608-.698-.608h-.77v2.039h.351v-.825h.196l.588.825h.406l-.595-.835zm-.283 1.27c-.788 0-1.378-.588-1.378-1.404 0-.815.59-1.403 1.378-1.403.793 0 1.377.588 1.377 1.403 0 .816-.584 1.403-1.377 1.403zm0-3.154c-.97 0-1.75.779-1.75 1.75a1.749 1.749 0 1 0 3.5 0c0-.971-.78-1.75-1.75-1.75z"/>
    </g>
</svg>
