<svg id="Fill_out_line" height="512" viewBox="0 0 512 512" width="512" xmlns="http://www.w3.org/2000/svg" data-name="Fill out line"><path d="m240 120v48a24.00619 24.00619 0 0 1 -24 24h-48a24 24 0 0 1 0-48 24 24 0 0 1 0-48 23.9928 23.9928 0 0 1 47.03-6.72 23.33537 23.33537 0 0 1 .97 6.72 24.00619 24.00619 0 0 1 24 24z" fill="#349b66"/><path d="m160 192h336v296h-336z" fill="#8ccee9"/><path d="m416 192h80v296h-80z" fill="#37a0c5"/><path d="m480 95.21v96.79h-112v-96.79a71.65079 71.65079 0 0 1 43.39-65.8101 31.99408 31.99408 0 0 1 25.22 0 71.59658 71.59658 0 0 1 43.39 65.8101z" fill="#af7d4d"/><path d="m416 80a15.97833 15.97833 0 0 1 -16 16h-32v-.79a71.40757 71.40757 0 0 1 7.16992-31.21h24.83008a15.99548 15.99548 0 0 1 16 16z" fill="#f0de9c"/><path d="m368 128h32a16 16 0 0 1 16 16 16 16 0 0 1 -16 16h-32a0 0 0 0 1 0 0v-32a0 0 0 0 1 0 0z" fill="#f0de9c"/><path d="m296 168a24.00619 24.00619 0 0 1 -24 24h-48a24 24 0 0 1 0-48 24 24 0 0 1 0-48 24 24 0 0 1 48 0 24.00619 24.00619 0 0 1 24 24z" fill="#349b66"/><path d="m328 304v160a24 24 0 0 1 -24 24h-80a24 24 0 0 1 -24-24v-160a24 24 0 0 1 24-24h16v-24h48v24h16a24 24 0 0 1 24 24z" fill="#e64042"/><path d="m224 224h80v32h-80z" fill="#f0de9c"/><path d="m200 328h128v112h-128z" fill="#f0de9c"/><circle cx="176" cy="416" fill="#ea8804" r="72"/><path d="m184 320h-20.24655a32 32 0 0 1 -31.67838-27.47452l-4.07507-28.52548 28.52548 4.07507a32 32 0 0 1 27.47452 31.67838z" fill="#349b66"/><path d="m168 432a16 16 0 0 1 -16 16l-1.14439 2.861a59.08126 59.08126 0 0 1 -54.85561 37.139 59.08126 59.08126 0 0 1 -54.85557-37.139l-1.14443-2.861a16 16 0 0 1 -16-16 16 16 0 0 1 16-16l1.14439-2.861a59.08126 59.08126 0 0 1 54.85561-37.139 59.08126 59.08126 0 0 1 54.85557 37.139l1.14443 2.861a16 16 0 0 1 16 16z" fill="#a4c52a"/><path d="m336 120h-48a96.56846 96.56846 0 0 1 -28.28424 68.2842l-3.71576 3.7158h112l-3.71576-3.71576a96.56846 96.56846 0 0 1 -28.28424-68.28424z" fill="#f0c033"/><path d="m280 72h64v48h-64z" fill="#f0de9c"/><path d="m496 184h-8v-88.79a79.51747 79.51747 0 0 0 -48.24-73.15991 40.20637 40.20637 0 0 0 -31.52 0 79.51747 79.51747 0 0 0 -48.24 73.15991v75.6001a87.54442 87.54442 0 0 1 -15.64-42.8201l-.00061-.00806a7.99364 7.99364 0 0 0 7.64061-7.98194v-48a8.00008 8.00008 0 0 0 -8-8h-64a8.00008 8.00008 0 0 0 -8 8v2.8501c-.43994-.51026-.9-1-1.38-1.48a31.984 31.984 0 0 0 -50.61 7.1399 32.22031 32.22031 0 0 0 -5.39-7.13989 32.00263 32.00263 0 0 0 -53.80994 15.43994 31.98816 31.98816 0 0 0 -13.95006 55.18995 31.96526 31.96526 0 0 0 5.14 51.7v44.3h16v-40h240v280h-64v16h152a7.9979 7.9979 0 0 0 8-8v-296a7.9979 7.9979 0 0 0 -8-8zm-120-48h24a8 8 0 0 1 0 16h-24zm4.37-64h19.63a8 8 0 1 1 0 16h-23.6a64.01244 64.01244 0 0 1 3.97-16zm-92.37 8h48v32h-48zm-120 104a16 16 0 0 1 0-32 8 8 0 0 0 0-16 16 16 0 0 1 0-32 7.9979 7.9979 0 0 0 8-8 16.00013 16.00013 0 0 1 31.62-3.47 31.958 31.958 0 0 0 -4.76 51.47 31.93735 31.93735 0 0 0 -6.55994 40zm56 0a16 16 0 0 1 0-32 8 8 0 0 0 0-16 16 16 0 0 1 0-32 7.9979 7.9979 0 0 0 8-8 16 16 0 1 1 32 0 7.9979 7.9979 0 0 0 8 8v16a7.99364 7.99364 0 0 0 7.64062 7.98193l-.00062.00807a87.73358 87.73358 0 0 1 -23.64 52.63012v-84.62012h-16v88zm50.14 0a103.38584 103.38584 0 0 0 21.54993-56h32.62012a103.38584 103.38584 0 0 0 21.54995 56zm101.86 0v-16h24a24 24 0 0 0 0-48h-24v-16h24a24 24 0 0 0 0-48h-10.48a63.465 63.465 0 0 1 25.03-19.24 24.04215 24.04215 0 0 1 18.8999 0 63.51551 63.51551 0 0 1 38.5501 58.45v88.79zm112 296h-64v-280h64z"/><path d="m176 432a24.04267 24.04267 0 0 0 -18.334-23.32422 67.0819 67.0819 0 0 0 -123.332 0 24.00336 24.00336 0 0 0 0 46.64844 67.0819 67.0819 0 0 0 123.332 0 24.04267 24.04267 0 0 0 18.334-23.32422zm-24 8a7.99922 7.99922 0 0 0 -7.42773 5.0293l-1.14454 2.86132a51.08168 51.08168 0 0 1 -94.85546 0l-1.14454-2.86132a7.99922 7.99922 0 0 0 -7.42773-5.0293 8 8 0 0 1 0-16 7.99922 7.99922 0 0 0 7.42773-5.0293l1.14454-2.86132a51.08168 51.08168 0 0 1 94.85546 0l1.14454 2.86132a7.99922 7.99922 0 0 0 7.42773 5.0293 8 8 0 0 1 0 16z"/><path d="m64 408h16v16h-16z"/><path d="m80 440h16v16h-16z"/><path d="m112 424h16v16h-16z"/><path d="m206.02 341.8501 17.13989-34.27-14.31982-7.16016-11.03 22.07007-5.81007-5.81008v-16.92993a40.18506 40.18506 0 0 0 -34.34009-39.59009l-28.52991-4.07983a7.99356 7.99356 0 0 0 -9.04992 9.0498l4.07983 28.53a40.18506 40.18506 0 0 0 39.59009 34.34012h16.92993l9.21008 9.21a80.07936 80.07936 0 0 0 -67.2301 19.16016l10.68018 11.91984a63.911 63.911 0 0 1 42.65991-16.29 62.44161 62.44161 0 0 1 6.87.37012l-9.07 18.12988a7.74033 7.74033 0 0 0 -2.22-1.66016l-16-8-7.16016 14.32007 13.8501 6.92017a25.95522 25.95522 0 0 0 29.34006 10.66992l12.80993 6.40991 7.16016-14.32007-16-8a8.044 8.044 0 0 0 -7.02-.06982l10.28-20.55a64.00695 64.00695 0 0 1 -44.17017 120.13989l-5.33984 15.09009a80.01072 80.01072 0 0 0 56.68992-149.5999zm-30.02-41.16016-15.6-15.6001-11.30991 11.31006 15.59985 15.6001h-.93994a24.12661 24.12661 0 0 1 -23.76-20.60986l-2.56006-17.96021 17.96006 2.57007a24.10891 24.10891 0 0 1 20.61 23.75z"/><path d="m304 272h-8v-8h8a7.9979 7.9979 0 0 0 8-8v-32a7.9979 7.9979 0 0 0 -8-8h-80a7.9979 7.9979 0 0 0 -8 8v32a7.9979 7.9979 0 0 0 8 8h8v8h-8a32.0512 32.0512 0 0 0 -23.85 10.66992l11.92 10.66016a16.0305 16.0305 0 0 1 11.93-5.33008h16a7.9979 7.9979 0 0 0 8-8v-16h32v8h-16v16h40a16.02116 16.02116 0 0 1 16 16v16h-88v16h88v96h-48v16h48v16a16.02116 16.02116 0 0 1 -16 16h-64v16h64a32.036 32.036 0 0 0 32-32v-160a32.036 32.036 0 0 0 -32-32zm-72-24v-16h64v16z"/></svg>