<?xml version="1.0"?>
<svg xmlns="http://www.w3.org/2000/svg" xmlns:xlink="http://www.w3.org/1999/xlink" xmlns:svgjs="http://svgjs.com/svgjs" version="1.1" width="512" height="512" x="0" y="0" viewBox="0 0 512 512" style="enable-background:new 0 0 512 512" xml:space="preserve" class=""><g>
<path xmlns="http://www.w3.org/2000/svg" style="" d="M437.02,74.98C388.667,26.629,324.38,0,256,0S123.333,26.629,74.98,74.98  C26.628,123.333,0,187.62,0,256s26.628,132.667,74.98,181.02C123.333,485.371,187.62,512,256,512s132.667-26.629,181.02-74.98  C485.371,388.667,512,324.38,512,256S485.371,123.333,437.02,74.98z" fill="#fba761" data-original="#fba761" class=""/>
<path xmlns="http://www.w3.org/2000/svg" style="" d="M420.049,91.951C376.229,48.132,317.969,24,256,24c-61.97,0-120.23,24.132-164.049,67.951  C48.132,135.771,24,194.031,24,256s24.132,120.229,67.951,164.049C135.77,463.868,194.03,488,256,488  c61.969,0,120.229-24.132,164.049-67.951C463.868,376.229,488,317.969,488,256S463.868,135.771,420.049,91.951z" fill="#fa892d" data-original="#fa892d" class=""/>
<path xmlns="http://www.w3.org/2000/svg" style="" d="M408.735,103.265C367.938,62.468,313.695,40,256,40c-57.696,0-111.938,22.468-152.735,63.265  C62.468,144.063,40,198.305,40,256s22.468,111.938,63.265,152.735S198.304,472,256,472c57.695,0,111.938-22.468,152.735-63.265  S472,313.695,472,256S449.532,144.063,408.735,103.265z" fill="#e4dad8" data-original="#e4dad8" class=""/>
<path xmlns="http://www.w3.org/2000/svg" style="" d="M397.422,114.578C359.646,76.803,309.422,56,256,56s-103.646,20.803-141.421,58.578  C76.803,152.354,56,202.578,56,256s20.803,103.646,58.579,141.422C152.354,435.197,202.578,456,256,456  s103.646-20.803,141.422-58.578C435.197,359.646,456,309.422,456,256S435.197,152.354,397.422,114.578z" fill="#f2edec" data-original="#f2edec" class=""/>
<g xmlns="http://www.w3.org/2000/svg">
	<path style="" d="M416,279.539c0-4.418-3.582-8-8-8h-40v-8h40c4.418,0,8-3.582,8-8s-3.582-8-8-8h-40v-8h40   c4.418,0,8-3.582,8-8s-3.582-8-8-8h-48c-8.837,0-16,7.163-16,16v4h-92c-6.627,0-12,5.373-12,12c0,6.627,5.373,12,12,12h92v4   c0,8.837,7.163,16,16,16h48C412.418,287.539,416,283.957,416,279.539z" fill="#c95038" data-original="#af908b" class=""/>
	<path style="" d="M267.501,267.499l-3.773-101.869c5.606-1.887,10.744-5.671,14.743-11.003   c5.5-7.334,8.529-16.968,8.529-27.127c0.002-21.78-14.13-39.499-31.499-39.5c-17.369,0-31.5,17.72-31.5,39.5   c0,12.495,4.649,23.651,11.893,30.894c3.315,3.314,7.176,5.805,11.381,7.234L243.501,267.5c0,6.628,5.372,12,12,12   C262.128,279.5,267.5,274.127,267.501,267.499z" fill="#c95038" data-original="#af908b" class=""/>
</g>
<path xmlns="http://www.w3.org/2000/svg" style="" d="M256,216c-22.056,0-40,17.944-40,40s17.944,40,40,40s40-17.944,40-40S278.056,216,256,216z" fill="#004e36" data-original="#f79191" class=""/>
<path xmlns="http://www.w3.org/2000/svg" style="" d="M256,232c-13.234,0-24,10.767-24,24s10.766,24,24,24c13.233,0,24-10.767,24-24S269.233,232,256,232z" fill="#004e36" data-original="#f56c6c" class=""/>
<g xmlns="http://www.w3.org/2000/svg">
	<path style="" d="M256,64c4.418,0,8-3.582,8-8V40.161c-2.66-0.096-5.325-0.161-8-0.161c-2.675,0-5.34,0.064-8,0.161   V56C248,60.418,251.582,64,256,64z" fill="#004e36" data-original="#885951" class=""/>
	<path style="" d="M156.007,90.796c1.357,0,2.733-0.346,3.993-1.073c3.826-2.209,5.137-7.102,2.928-10.928   l-7.974-13.812c-4.705,2.496-9.323,5.169-13.844,8.021l7.962,13.791C150.554,89.361,153.243,90.796,156.007,90.796z" fill="#004e36" data-original="#885951" class=""/>
	<path style="" d="M82.788,164.001c2.765,0,5.454-1.435,6.936-4.001c2.209-3.826,0.898-8.719-2.928-10.928   l-13.791-7.962c-2.851,4.522-5.524,9.14-8.021,13.844l13.812,7.974C80.055,163.655,81.43,164.001,82.788,164.001z" fill="#004e36" data-original="#885951" class=""/>
	<path style="" d="M64,256c0-4.418-3.582-8-8-8H40.161c-0.096,2.66-0.161,5.325-0.161,8c0,2.675,0.065,5.34,0.161,8H56   C60.418,264,64,260.418,64,256z" fill="#004e36" data-original="#885951" class=""/>
	<path style="" d="M89.723,352c-2.209-3.826-7.102-5.136-10.928-2.928l-13.812,7.974   c2.496,4.704,5.17,9.322,8.021,13.844l13.791-7.962C90.621,360.719,91.932,355.826,89.723,352z" fill="#004e36" data-original="#885951" class=""/>
	<path style="" d="M160,422.277c-3.827-2.211-8.718-0.898-10.928,2.928l-7.962,13.791   c4.522,2.851,9.14,5.524,13.844,8.021l7.974-13.812C165.137,429.379,163.826,424.486,160,422.277z" fill="#004e36" data-original="#885951" class=""/>
	<path style="" d="M256,448c-4.418,0-8,3.582-8,8v15.839c2.66,0.096,5.325,0.161,8,0.161c2.675,0,5.34-0.064,8-0.161   V456C264,451.582,260.418,448,256,448z" fill="#004e36" data-original="#885951" class=""/>
	<path style="" d="M352,422.277c-3.826,2.209-5.138,7.102-2.928,10.928l7.974,13.812   c4.704-2.496,9.322-5.169,13.844-8.021l-7.962-13.791C360.72,421.38,355.829,420.066,352,422.277z" fill="#004e36" data-original="#885951" class=""/>
	<path style="" d="M422.277,352c-2.21,3.826-0.898,8.719,2.928,10.928l13.791,7.962   c2.851-4.521,5.524-9.14,8.021-13.844l-13.812-7.974C429.379,346.862,424.485,348.173,422.277,352z" fill="#004e36" data-original="#885951" class=""/>
	<path style="" d="M471.839,248H456c-4.418,0-8,3.582-8,8s3.582,8,8,8h15.839c0.096-2.66,0.161-5.325,0.161-8   S471.935,250.66,471.839,248z" fill="#004e36" data-original="#885951" class=""/>
	<path style="" d="M422.277,160c1.481,2.566,4.17,4.001,6.936,4.001c1.356,0,2.732-0.346,3.992-1.073l13.812-7.974   c-2.496-4.704-5.169-9.322-8.021-13.844l-13.791,7.962C421.379,151.281,420.067,156.174,422.277,160z" fill="#004e36" data-original="#885951" class=""/>
	<path style="" d="M352,89.723c1.26,0.728,2.635,1.073,3.992,1.073c2.765,0,5.454-1.435,6.936-4.001l7.962-13.791   c-4.522-2.851-9.139-5.524-13.844-8.021l-7.974,13.812C346.862,82.621,348.174,87.514,352,89.723z" fill="#004e36" data-original="#885951" class=""/>
</g>
<g xmlns="http://www.w3.org/2000/svg">
</g>
<g xmlns="http://www.w3.org/2000/svg">
</g>
<g xmlns="http://www.w3.org/2000/svg">
</g>
<g xmlns="http://www.w3.org/2000/svg">
</g>
<g xmlns="http://www.w3.org/2000/svg">
</g>
<g xmlns="http://www.w3.org/2000/svg">
</g>
<g xmlns="http://www.w3.org/2000/svg">
</g>
<g xmlns="http://www.w3.org/2000/svg">
</g>
<g xmlns="http://www.w3.org/2000/svg">
</g>
<g xmlns="http://www.w3.org/2000/svg">
</g>
<g xmlns="http://www.w3.org/2000/svg">
</g>
<g xmlns="http://www.w3.org/2000/svg">
</g>
<g xmlns="http://www.w3.org/2000/svg">
</g>
<g xmlns="http://www.w3.org/2000/svg">
</g>
<g xmlns="http://www.w3.org/2000/svg">
</g>
</g></svg>
